{
    "asset" : {
        "generator" : "Khronos glTF Blender I/O v1.2.75",
        "version" : "2.0"
    },
    "scene" : 0,
    "scenes" : [
        {
            "name" : "Scene",
            "nodes" : [
                6
            ]
        }
    ],
    "nodes" : [
        {
            "mesh" : 0,
            "name" : "Cone",
            "rotation" : [
                0,
                0.3826834559440613,
                0,
                0.9238795042037964
            ],
            "scale" : [
                0.2849999964237213,
                0.6100003719329834,
                0.2849999964237213
            ],
            "translation" : [
                0,
                1.3025786876678467,
                0
            ]
        },
        {
            "mesh" : 1,
            "name" : "Cube.001",
            "scale" : [
                0.020000014454126358,
                0.3799999952316284,
                0.12000005692243576
            ],
            "translation" : [
                -1.0099999904632568,
                0.01702699065208435,
                -0.5928040146827698
            ]
        },
        {
            "mesh" : 2,
            "name" : "Cube.002",
            "scale" : [
                0.020000014454126358,
                0.3799999952316284,
                0.12000005692243576
            ],
            "translation" : [
                -1.0099999904632568,
                0.01702699065208435,
                0.5928042531013489
            ]
        },
        {
            "mesh" : 3,
            "name" : "Cube.003",
            "rotation" : [
                0,
                0.7071067690849304,
                0,
                0.7071067690849304
            ],
            "scale" : [
                0.010000014677643776,
                0.3799999952316284,
                0.3400000333786011
            ],
            "translation" : [
                0,
                0.01702699065208435,
                1.0087393522262573
            ]
        },
        {
            "mesh" : 4,
            "name" : "Cube.004",
            "rotation" : [
                0,
                0.7071067690849304,
                0,
                0.7071067690849304
            ],
            "scale" : [
                0.010000014677643776,
                0.3799999952316284,
                0.3400000333786011
            ],
            "translation" : [
                0,
                0.01702699065208435,
                -1.008739948272705
            ]
        },
        {
            "mesh" : 5,
            "name" : "door",
            "scale" : [
                0.020000014454126358,
                0.5899999141693115,
                0.13000012934207916
            ],
            "translation" : [
                -1.0099999904632568,
                -0.41089022159576416,
                0
            ]
        },
        {
            "children" : [
                0,
                1,
                2,
                3,
                4,
                5
            ],
            "mesh" : 6,
            "name" : "house",
            "scale" : [
                7,
                5.440000534057617,
                17.860000610351562
            ]
        }
    ],
    "materials" : [
        {
            "doubleSided" : true,
            "emissiveFactor" : [
                0,
                0,
                0
            ],
            "name" : "Material",
            "pbrMetallicRoughness" : {
                "baseColorFactor" : [
                    0,
                    0,
                    0,
                    1
                ],
                "metallicFactor" : 0,
                "roughnessFactor" : 0.5
            }
        },
        {
            "doubleSided" : true,
            "emissiveFactor" : [
                0,
                0,
                0
            ],
            "name" : "Material.009",
            "pbrMetallicRoughness" : {
                "baseColorFactor" : [
                    0.03560096025466919,
                    0.8796226978302002,
                    0.9822508096694946,
                    1
                ],
                "metallicFactor" : 0,
                "roughnessFactor" : 0.5
            }
        },
        {
            "doubleSided" : true,
            "emissiveFactor" : [
                0,
                0,
                0
            ],
            "name" : "Material.004",
            "pbrMetallicRoughness" : {
                "baseColorFactor" : [
                    0.03560096025466919,
                    0.8796226978302002,
                    0.9822508096694946,
                    1
                ],
                "metallicFactor" : 0,
                "roughnessFactor" : 0.5
            }
        },
        {
            "doubleSided" : true,
            "emissiveFactor" : [
                0,
                0,
                0
            ],
            "name" : "Material.010",
            "pbrMetallicRoughness" : {
                "baseColorFactor" : [
                    0.03560096025466919,
                    0.8796226978302002,
                    0.9822508096694946,
                    1
                ],
                "metallicFactor" : 0,
                "roughnessFactor" : 0.5
            }
        },
        {
            "doubleSided" : true,
            "emissiveFactor" : [
                0,
                0,
                0
            ],
            "name" : "Material.011",
            "pbrMetallicRoughness" : {
                "baseColorFactor" : [
                    0.03560096025466919,
                    0.8796226978302002,
                    0.9822508096694946,
                    1
                ],
                "metallicFactor" : 0,
                "roughnessFactor" : 0.5
            }
        },
        {
            "doubleSided" : true,
            "emissiveFactor" : [
                0,
                0,
                0
            ],
            "name" : "Material.002",
            "pbrMetallicRoughness" : {
                "baseColorFactor" : [
                    0.1499435305595398,
                    0.03613574802875519,
                    0.018284158781170845,
                    1
                ],
                "metallicFactor" : 0,
                "roughnessFactor" : 0.5
            }
        },
        {
            "doubleSided" : true,
            "emissiveFactor" : [
                0,
                0,
                0
            ],
            "name" : "Material.003",
            "pbrMetallicRoughness" : {
                "baseColorFactor" : [
                    0.8196049332618713,
                    0.8713674545288086,
                    0.769681990146637,
                    1
                ],
                "metallicFactor" : 0,
                "roughnessFactor" : 0.5
            }
        }
    ],
    "meshes" : [
        {
            "name" : "Cone",
            "primitives" : [
                {
                    "attributes" : {
                        "POSITION" : 0,
                        "NORMAL" : 1,
                        "TEXCOORD_0" : 2
                    },
                    "indices" : 3,
                    "material" : 0
                }
            ]
        },
        {
            "name" : "Cube.003",
            "primitives" : [
                {
                    "attributes" : {
                        "POSITION" : 4,
                        "NORMAL" : 5,
                        "TEXCOORD_0" : 6
                    },
                    "indices" : 7,
                    "material" : 1
                }
            ]
        },
        {
            "name" : "Cube.013",
            "primitives" : [
                {
                    "attributes" : {
                        "POSITION" : 8,
                        "NORMAL" : 9,
                        "TEXCOORD_0" : 10
                    },
                    "indices" : 7,
                    "material" : 2
                }
            ]
        },
        {
            "name" : "Cube.004",
            "primitives" : [
                {
                    "attributes" : {
                        "POSITION" : 11,
                        "NORMAL" : 12,
                        "TEXCOORD_0" : 13
                    },
                    "indices" : 7,
                    "material" : 3
                }
            ]
        },
        {
            "name" : "Cube.005",
            "primitives" : [
                {
                    "attributes" : {
                        "POSITION" : 14,
                        "NORMAL" : 15,
                        "TEXCOORD_0" : 16
                    },
                    "indices" : 7,
                    "material" : 4
                }
            ]
        },
        {
            "name" : "Cube.008",
            "primitives" : [
                {
                    "attributes" : {
                        "POSITION" : 17,
                        "NORMAL" : 18,
                        "TEXCOORD_0" : 19
                    },
                    "indices" : 7,
                    "material" : 5
                }
            ]
        },
        {
            "name" : "Cube.001",
            "primitives" : [
                {
                    "attributes" : {
                        "POSITION" : 20,
                        "NORMAL" : 21,
                        "TEXCOORD_0" : 22
                    },
                    "indices" : 7,
                    "material" : 6
                }
            ]
        }
    ],
    "accessors" : [
        {
            "bufferView" : 0,
            "componentType" : 5126,
            "count" : 16,
            "max" : [
                5,
                0.5,
                5
            ],
            "min" : [
                -5,
                -0.5,
                -5
            ],
            "type" : "VEC3"
        },
        {
            "bufferView" : 1,
            "componentType" : 5126,
            "count" : 16,
            "type" : "VEC3"
        },
        {
            "bufferView" : 2,
            "componentType" : 5126,
            "count" : 16,
            "type" : "VEC2"
        },
        {
            "bufferView" : 3,
            "componentType" : 5123,
            "count" : 18,
            "type" : "SCALAR"
        },
        {
            "bufferView" : 4,
            "componentType" : 5126,
            "count" : 24,
            "max" : [
                1,
                1,
                1
            ],
            "min" : [
                -1,
                -1,
                -1
            ],
            "type" : "VEC3"
        },
        {
            "bufferView" : 5,
            "componentType" : 5126,
            "count" : 24,
            "type" : "VEC3"
        },
        {
            "bufferView" : 6,
            "componentType" : 5126,
            "count" : 24,
            "type" : "VEC2"
        },
        {
            "bufferView" : 7,
            "componentType" : 5123,
            "count" : 36,
            "type" : "SCALAR"
        },
        {
            "bufferView" : 8,
            "componentType" : 5126,
            "count" : 24,
            "max" : [
                1,
                1,
                1
            ],
            "min" : [
                -1,
                -1,
                -1
            ],
            "type" : "VEC3"
        },
        {
            "bufferView" : 9,
            "componentType" : 5126,
            "count" : 24,
            "type" : "VEC3"
        },
        {
            "bufferView" : 10,
            "componentType" : 5126,
            "count" : 24,
            "type" : "VEC2"
        },
        {
            "bufferView" : 11,
            "componentType" : 5126,
            "count" : 24,
            "max" : [
                1,
                1,
                1
            ],
            "min" : [
                -1,
                -1,
                -1
            ],
            "type" : "VEC3"
        },
        {
            "bufferView" : 12,
            "componentType" : 5126,
            "count" : 24,
            "type" : "VEC3"
        },
        {
            "bufferView" : 13,
            "componentType" : 5126,
            "count" : 24,
            "type" : "VEC2"
        },
        {
            "bufferView" : 14,
            "componentType" : 5126,
            "count" : 24,
            "max" : [
                1,
                1,
                1
            ],
            "min" : [
                -1,
                -1,
                -1
            ],
            "type" : "VEC3"
        },
        {
            "bufferView" : 15,
            "componentType" : 5126,
            "count" : 24,
            "type" : "VEC3"
        },
        {
            "bufferView" : 16,
            "componentType" : 5126,
            "count" : 24,
            "type" : "VEC2"
        },
        {
            "bufferView" : 17,
            "componentType" : 5126,
            "count" : 24,
            "max" : [
                1,
                1,
                1
            ],
            "min" : [
                -1,
                -1,
                -1
            ],
            "type" : "VEC3"
        },
        {
            "bufferView" : 18,
            "componentType" : 5126,
            "count" : 24,
            "type" : "VEC3"
        },
        {
            "bufferView" : 19,
            "componentType" : 5126,
            "count" : 24,
            "type" : "VEC2"
        },
        {
            "bufferView" : 20,
            "componentType" : 5126,
            "count" : 24,
            "max" : [
                1,
                1,
                1
            ],
            "min" : [
                -1,
                -1,
                -1
            ],
            "type" : "VEC3"
        },
        {
            "bufferView" : 21,
            "componentType" : 5126,
            "count" : 24,
            "type" : "VEC3"
        },
        {
            "bufferView" : 22,
            "componentType" : 5126,
            "count" : 24,
            "type" : "VEC2"
        }
    ],
    "bufferViews" : [
        {
            "buffer" : 0,
            "byteLength" : 192,
            "byteOffset" : 0
        },
        {
            "buffer" : 0,
            "byteLength" : 192,
            "byteOffset" : 192
        },
        {
            "buffer" : 0,
            "byteLength" : 128,
            "byteOffset" : 384
        },
        {
            "buffer" : 0,
            "byteLength" : 36,
            "byteOffset" : 512
        },
        {
            "buffer" : 0,
            "byteLength" : 288,
            "byteOffset" : 548
        },
        {
            "buffer" : 0,
            "byteLength" : 288,
            "byteOffset" : 836
        },
        {
            "buffer" : 0,
            "byteLength" : 192,
            "byteOffset" : 1124
        },
        {
            "buffer" : 0,
            "byteLength" : 72,
            "byteOffset" : 1316
        },
        {
            "buffer" : 0,
            "byteLength" : 288,
            "byteOffset" : 1388
        },
        {
            "buffer" : 0,
            "byteLength" : 288,
            "byteOffset" : 1676
        },
        {
            "buffer" : 0,
            "byteLength" : 192,
            "byteOffset" : 1964
        },
        {
            "buffer" : 0,
            "byteLength" : 288,
            "byteOffset" : 2156
        },
        {
            "buffer" : 0,
            "byteLength" : 288,
            "byteOffset" : 2444
        },
        {
            "buffer" : 0,
            "byteLength" : 192,
            "byteOffset" : 2732
        },
        {
            "buffer" : 0,
            "byteLength" : 288,
            "byteOffset" : 2924
        },
        {
            "buffer" : 0,
            "byteLength" : 288,
            "byteOffset" : 3212
        },
        {
            "buffer" : 0,
            "byteLength" : 192,
            "byteOffset" : 3500
        },
        {
            "buffer" : 0,
            "byteLength" : 288,
            "byteOffset" : 3692
        },
        {
            "buffer" : 0,
            "byteLength" : 288,
            "byteOffset" : 3980
        },
        {
            "buffer" : 0,
            "byteLength" : 192,
            "byteOffset" : 4268
        },
        {
            "buffer" : 0,
            "byteLength" : 288,
            "byteOffset" : 4460
        },
        {
            "buffer" : 0,
            "byteLength" : 288,
            "byteOffset" : 4748
        },
        {
            "buffer" : 0,
            "byteLength" : 192,
            "byteOffset" : 5036
        }
    ],
    "buffers" : [
        {
            "byteLength" : 5228,
            "uri" : "data:application/octet-stream;base64,"
        }
    ]
}
