{
    "asset" : {
        "generator" : "Khronos glTF Blender I/O v1.2.75",
        "version" : "2.0"
    },
    "scene" : 0,
    "scenes" : [
        {
            "name" : "Scene",
            "nodes" : [
                1
            ]
        }
    ],
    "nodes" : [
        {
            "mesh" : 0,
            "name" : "Cube",
            "rotation" : [
                0,
                0.17364805936813354,
                0,
                0.9848077893257141
            ],
            "scale" : [
                0.3440000116825104,
                0.9900000095367432,
                0.8799999356269836
            ],
            "translation" : [
                -0.620611310005188,
                0,
                -1.7116721868515015
            ]
        },
        {
            "children" : [
                0
            ],
            "mesh" : 1,
            "name" : "Cylinder",
            "rotation" : [
                0,
                0,
                -0.7071067690849304,
                0.7071067690849304
            ],
            "scale" : [
                1,
                0.1900000274181366,
                1
            ]
        }
    ],
    "materials" : [
        {
            "doubleSided" : true,
            "emissiveFactor" : [
                0,
                0,
                0
            ],
            "name" : "Material.002",
            "pbrMetallicRoughness" : {
                "baseColorFactor" : [
                    0.35883980989456177,
                    0.35883980989456177,
                    0.35883980989456177,
                    1
                ],
                "metallicFactor" : 1,
                "roughnessFactor" : 0.5
            }
        },
        {
            "doubleSided" : true,
            "emissiveFactor" : [
                0,
                0,
                0
            ],
            "name" : "Material.001",
            "pbrMetallicRoughness" : {
                "baseColorFactor" : [
                    0,
                    0,
                    0,
                    1
                ],
                "metallicFactor" : 0,
                "roughnessFactor" : 0.5
            }
        }
    ],
    "meshes" : [
        {
            "name" : "Cube.001",
            "primitives" : [
                {
                    "attributes" : {
                        "POSITION" : 0,
                        "NORMAL" : 1,
                        "TEXCOORD_0" : 2
                    },
                    "indices" : 3,
                    "material" : 0
                }
            ]
        },
        {
            "name" : "Cylinder",
            "primitives" : [
                {
                    "attributes" : {
                        "POSITION" : 4,
                        "NORMAL" : 5,
                        "TEXCOORD_0" : 6
                    },
                    "indices" : 7,
                    "material" : 1
                }
            ]
        }
    ],
    "accessors" : [
        {
            "bufferView" : 0,
            "componentType" : 5126,
            "count" : 299,
            "max" : [
                1,
                1,
                1
            ],
            "min" : [
                -1,
                -1,
                -1
            ],
            "type" : "VEC3"
        },
        {
            "bufferView" : 1,
            "componentType" : 5126,
            "count" : 299,
            "type" : "VEC3"
        },
        {
            "bufferView" : 2,
            "componentType" : 5126,
            "count" : 299,
            "type" : "VEC2"
        },
        {
            "bufferView" : 3,
            "componentType" : 5123,
            "count" : 516,
            "type" : "SCALAR"
        },
        {
            "bufferView" : 4,
            "componentType" : 5126,
            "count" : 54,
            "max" : [
                0.9848077893257141,
                0.9999998807907104,
                0.9396925568580627
            ],
            "min" : [
                -0.9848077297210693,
                -0.9999998807907104,
                -0.9999998807907104
            ],
            "type" : "VEC3"
        },
        {
            "bufferView" : 5,
            "componentType" : 5126,
            "count" : 54,
            "type" : "VEC3"
        },
        {
            "bufferView" : 6,
            "componentType" : 5126,
            "count" : 54,
            "type" : "VEC2"
        },
        {
            "bufferView" : 7,
            "componentType" : 5123,
            "count" : 96,
            "type" : "SCALAR"
        }
    ],
    "bufferViews" : [
        {
            "buffer" : 0,
            "byteLength" : 3588,
            "byteOffset" : 0
        },
        {
            "buffer" : 0,
            "byteLength" : 3588,
            "byteOffset" : 3588
        },
        {
            "buffer" : 0,
            "byteLength" : 2392,
            "byteOffset" : 7176
        },
        {
            "buffer" : 0,
            "byteLength" : 1032,
            "byteOffset" : 9568
        },
        {
            "buffer" : 0,
            "byteLength" : 648,
            "byteOffset" : 10600
        },
        {
            "buffer" : 0,
            "byteLength" : 648,
            "byteOffset" : 11248
        },
        {
            "buffer" : 0,
            "byteLength" : 432,
            "byteOffset" : 11896
        },
        {
            "buffer" : 0,
            "byteLength" : 192,
            "byteOffset" : 12328
        }
    ],
    "buffers" : [
        {
            "byteLength" : 12520,
            "uri" : "data:application/octet-stream;base64,"
        }
    ]
}
